<svg width="754" height="288" viewBox="0 0 754 288" fill="none" xmlns="http://www.w3.org/2000/svg">
<path d="M133.138 193.552V208.179L66.7104 177.414V165.545L133.138 134.779V149.407L82.9035 171.338V171.614L133.138 193.552ZM172.593 118.531H61.4966C56.2552 118.531 52 122.772 52 128V214.959C52 220.186 56.2552 224.428 61.4966 224.428H141.752L172.593 118.531Z" fill="#DB9A8F"/>
<path d="M278.297 122.297L211.869 152.648V138.021L263.214 116.083V115.807L211.869 93.8759V79.2483L278.297 109.6V122.297ZM203.435 63L172.593 168.897H283.504C288.752 168.897 293 164.655 293 159.428V72.469C293 67.2414 288.752 63 283.504 63H203.435Z" fill="#814256"/>
<path d="M387.692 134.77C387.692 126.933 377.089 123.952 370.16 121.602C364.138 119.58 363.231 118.941 363.231 117.231C363.231 115.312 365.632 114.465 369.469 114.465C374.101 114.465 377.617 115.744 377.617 120.324H386.145C386.145 112.866 380.978 107 369.469 107C359.766 107 354.703 110.517 354.703 116.911C354.703 124.272 361.156 126.398 369.097 129.067C374.584 130.926 379.164 132.153 379.164 134.874C379.164 136.896 377.357 138.175 371.863 138.175C364.405 138.175 361.528 136.368 361.528 130.606H353C353 140.093 358.063 145.64 371.595 145.64C383.164 145.64 387.692 141.216 387.692 134.77Z" fill="#814256"/>
<path d="M422.221 123.097H403.358V107.535H394.83V145.104H403.358V130.554H422.221V145.104H430.749V107.535H422.221V123.097Z" fill="#814256"/>
<path d="M466.288 145.104V137.647H448.013V130.026H463.626V122.561H448.013V114.992H466.288V107.535H439.485V145.104H466.288Z" fill="#814256"/>
<path d="M490.693 126.294C490.693 137.268 498.046 145.64 509.987 145.64C520.485 145.64 527.414 139.885 528.53 130.554H520.002C519.154 135.513 515.206 138.175 510.091 138.175C503.541 138.175 499.221 134.071 499.221 126.294C499.221 118.569 503.541 114.465 510.091 114.465C515.206 114.465 519.154 117.074 520.002 122.034H528.53C527.414 112.755 520.485 107 509.987 107C498.046 107 490.693 115.372 490.693 126.294Z" fill="#814256"/>
<path d="M536.2 126.294C536.2 137.268 543.449 145.64 555.39 145.64C567.271 145.64 574.52 137.268 574.52 126.294C574.52 115.372 567.271 107 555.39 107C543.449 107 536.2 115.372 536.2 126.294ZM544.728 126.294C544.728 119.097 548.297 114.465 555.39 114.465C562.475 114.465 565.992 119.097 565.992 126.294C565.992 133.543 562.475 138.175 555.39 138.175C548.297 138.175 544.728 133.543 544.728 126.294Z" fill="#814256"/>
<path d="M596.581 107.535H582.722V145.105H596.581C606.596 145.105 617.042 142.495 617.042 126.294C617.042 110.145 606.596 107.535 596.581 107.535ZM591.25 137.647V114.993H596.581C603.235 114.993 608.514 115.528 608.514 126.294C608.514 137.112 603.235 137.647 596.581 137.647H591.25Z" fill="#814256"/>
<path d="M652.048 145.104V137.647H633.773V130.026H649.387V122.561H633.773V114.992H652.048V107.535H625.245V145.104H652.048Z" fill="#814256"/>
<path d="M692.816 134.77C692.816 126.933 682.214 123.952 675.285 121.602C669.262 119.58 668.355 118.941 668.355 117.231C668.355 115.312 670.757 114.465 674.593 114.465C679.225 114.465 682.742 115.744 682.742 120.324H691.27C691.27 112.866 686.103 107 674.593 107C664.89 107 659.827 110.517 659.827 116.911C659.827 124.272 666.281 126.398 674.221 129.067C679.708 130.926 684.288 132.153 684.288 134.874C684.288 136.896 682.482 138.175 676.987 138.175C669.53 138.175 666.652 136.368 666.652 130.606H658.125C658.125 140.093 663.188 145.64 676.72 145.64C688.288 145.64 692.816 141.216 692.816 134.77Z" fill="#814256"/>
<path d="M449.554 164.231L445.16 178.305L440.989 164.231H438.424L434.312 178.276L429.941 164.231H428L433.368 181.361H435.309L439.703 166.171L444.186 181.361H446.104L451.443 164.231H449.554Z" fill="#814256"/>
<path d="M469.114 181.591C473.999 181.591 477.91 177.651 477.91 172.796C477.91 167.941 473.999 164 469.114 164C464.259 164 460.318 167.941 460.318 172.796C460.318 177.651 464.259 181.591 469.114 181.591ZM469.114 179.762C465.255 179.762 462.147 176.677 462.147 172.796C462.147 168.915 465.255 165.829 469.114 165.829C472.995 165.829 476.081 168.915 476.081 172.796C476.081 176.677 472.995 179.762 469.114 179.762Z" fill="#814256"/>
<path d="M496.004 173.539C498.264 173.227 499.974 171.339 499.974 169.026C499.974 166.342 497.833 164.231 495.208 164.231H489.067V181.361H490.896V173.621H494.123L498.978 181.361H501.06L496.004 173.539ZM490.896 171.881V166.06H495.097C496.807 166.06 498.145 167.257 498.145 168.967C498.145 170.714 496.837 171.881 495.097 171.881H490.896Z" fill="#814256"/>
<path d="M521.275 181.361H523.818L515.676 172.142L523.505 164.231H520.963L514.078 171.257H512.881V164.231H511.052V181.361H512.881V172.967H514.108L521.275 181.361Z" fill="#814256"/>
<path d="M537.661 181.591C540.576 181.591 542.947 179.844 542.947 176.848C542.947 171.026 534.605 172.454 534.605 168.372C534.605 166.654 536.003 165.829 537.602 165.829C538.918 165.829 540.003 166.372 540.687 167.346L542.115 166.141C541.17 164.944 539.52 164 537.55 164C534.925 164 532.784 165.717 532.784 168.513C532.784 174.022 541.118 172.654 541.118 176.907C541.118 178.736 539.602 179.762 537.691 179.762C535.75 179.762 534.353 178.706 533.75 177.138L532.092 178.104C532.977 180.216 535.118 181.591 537.661 181.591Z" fill="#814256"/>
<path d="M564.785 164.231V171.881H555.335V164.231H553.506V181.361H555.335V173.71H564.785V181.361H566.614V164.231H564.785Z" fill="#814256"/>
<path d="M586.542 181.591C591.427 181.591 595.338 177.651 595.338 172.796C595.338 167.941 591.427 164 586.542 164C581.687 164 577.747 167.941 577.747 172.796C577.747 177.651 581.687 181.591 586.542 181.591ZM586.542 179.762C582.683 179.762 579.576 176.677 579.576 172.796C579.576 168.915 582.683 165.829 586.542 165.829C590.423 165.829 593.509 168.915 593.509 172.796C593.509 176.677 590.423 179.762 586.542 179.762Z" fill="#814256"/>
<path d="M612.638 164.231H606.497V181.361H608.326V173.74H612.638C615.292 173.74 617.404 171.651 617.404 168.997C617.404 166.372 615.292 164.231 612.638 164.231ZM612.467 171.993H608.326V166H612.467C614.177 166 615.575 167.198 615.575 169.027C615.575 170.915 614.177 171.993 612.467 171.993Z" fill="#814256"/>
</svg>
